<?xml version="1.0" encoding="utf-8"?>
<!-- Generator: Adobe Illustrator 22.1.0, SVG Export Plug-In . SVG Version: 6.00 Build 0)  -->
<svg version="1.1" id="Layer_1" xmlns:sketch="http://www.bohemiancoding.com/sketch/ns"
	 xmlns="http://www.w3.org/2000/svg" xmlns:xlink="http://www.w3.org/1999/xlink" x="0px" y="0px" viewBox="0 0 197 276"
	 style="enable-background:new 0 0 197 276;" xml:space="preserve">
<title>mole</title>
<desc>Created with Sketch.</desc>
<path d="M42.2,123.7c0.3-1.9,0.6-3.8,0.9-5.7c11.2-62.6,52.8-80.3,78-55.5c11.6,11.4,19.7,31.9,19.7,61.2c22-2.7,43.3-8.6,54.3-63.2
	c2.3,44-15.4,66.6-45.5,75.8l-2.5,80.8c-11.4,79.6-104.9,68.2-104.9,0v-72C14.6,131.7-8.4,115.6,3,79.5C6,98.3,6.8,118.1,42.2,123.7
	z"/>
<polygon points="143.2,16.3 115.8,58.1 126.2,68.5 "/>
<polygon points="32.1,10 64.1,68.5 73,60 "/>
</svg>
